<mxfile host="app.diagrams.net" modified="2023-01-22T19:15:58.009Z" agent="5.0 (Windows)" etag="LuLm0JaVsTurRxdTISC2" version="20.8.8" type="github">
  <diagram name="Page-1" id="x4iJGQ0KPtCMB_jyQW9S">
    <mxGraphModel dx="677" dy="365" grid="1" gridSize="10" guides="1" tooltips="1" connect="1" arrows="1" fold="1" page="1" pageScale="1" pageWidth="827" pageHeight="1169" math="0" shadow="0">
      <root>
        <mxCell id="0" />
        <mxCell id="1" parent="0" />
        <mxCell id="uvVCpmAjIxrzyu7uWYnQ-89" value="" style="rounded=0;whiteSpace=wrap;html=1;" vertex="1" parent="1">
          <mxGeometry x="80" y="80" width="160" height="200" as="geometry" />
        </mxCell>
        <mxCell id="uvVCpmAjIxrzyu7uWYnQ-90" value="" style="rounded=0;whiteSpace=wrap;html=1;" vertex="1" parent="1">
          <mxGeometry x="80" y="80" width="160" height="40" as="geometry" />
        </mxCell>
        <mxCell id="uvVCpmAjIxrzyu7uWYnQ-91" value="users" style="text;strokeColor=none;align=center;fillColor=#D1D1D1;html=1;verticalAlign=middle;whiteSpace=wrap;rounded=0;" vertex="1" parent="1">
          <mxGeometry x="80" y="80" width="160" height="40" as="geometry" />
        </mxCell>
        <mxCell id="uvVCpmAjIxrzyu7uWYnQ-92" value="" style="rounded=0;whiteSpace=wrap;html=1;" vertex="1" parent="1">
          <mxGeometry x="370" y="80" width="160" height="200" as="geometry" />
        </mxCell>
        <mxCell id="uvVCpmAjIxrzyu7uWYnQ-93" value="" style="rounded=0;whiteSpace=wrap;html=1;" vertex="1" parent="1">
          <mxGeometry x="370" y="80" width="160" height="40" as="geometry" />
        </mxCell>
        <mxCell id="uvVCpmAjIxrzyu7uWYnQ-94" value="videos" style="text;strokeColor=none;align=center;fillColor=#D1D1D1;html=1;verticalAlign=middle;whiteSpace=wrap;rounded=0;" vertex="1" parent="1">
          <mxGeometry x="370" y="80" width="160" height="40" as="geometry" />
        </mxCell>
        <mxCell id="uvVCpmAjIxrzyu7uWYnQ-95" value="" style="rounded=0;whiteSpace=wrap;html=1;" vertex="1" parent="1">
          <mxGeometry x="80" y="120" width="160" height="40" as="geometry" />
        </mxCell>
        <mxCell id="uvVCpmAjIxrzyu7uWYnQ-96" value="userID :serial" style="text;strokeColor=none;align=center;fillColor=none;html=1;verticalAlign=middle;whiteSpace=wrap;rounded=0;" vertex="1" parent="1">
          <mxGeometry x="80" y="120" width="160" height="40" as="geometry" />
        </mxCell>
        <mxCell id="uvVCpmAjIxrzyu7uWYnQ-97" value="" style="rounded=0;whiteSpace=wrap;html=1;fillColor=none;" vertex="1" parent="1">
          <mxGeometry x="80" y="160" width="160" height="40" as="geometry" />
        </mxCell>
        <mxCell id="uvVCpmAjIxrzyu7uWYnQ-98" value="userName : character varying (30)" style="text;strokeColor=none;align=center;fillColor=none;html=1;verticalAlign=middle;whiteSpace=wrap;rounded=0;" vertex="1" parent="1">
          <mxGeometry x="80" y="160" width="160" height="40" as="geometry" />
        </mxCell>
        <mxCell id="uvVCpmAjIxrzyu7uWYnQ-99" value="" style="rounded=0;whiteSpace=wrap;html=1;fillColor=none;" vertex="1" parent="1">
          <mxGeometry x="80" y="200" width="160" height="40" as="geometry" />
        </mxCell>
        <mxCell id="uvVCpmAjIxrzyu7uWYnQ-100" value="&lt;div&gt;userEmail : text&lt;/div&gt;" style="text;strokeColor=none;align=center;fillColor=none;html=1;verticalAlign=middle;whiteSpace=wrap;rounded=0;" vertex="1" parent="1">
          <mxGeometry x="80" y="200" width="160" height="40" as="geometry" />
        </mxCell>
        <mxCell id="uvVCpmAjIxrzyu7uWYnQ-103" value="" style="rounded=0;whiteSpace=wrap;html=1;fillColor=none;" vertex="1" parent="1">
          <mxGeometry x="370" y="120" width="160" height="40" as="geometry" />
        </mxCell>
        <mxCell id="uvVCpmAjIxrzyu7uWYnQ-104" value="videoID : serial" style="text;strokeColor=none;align=center;fillColor=none;html=1;verticalAlign=middle;whiteSpace=wrap;rounded=0;" vertex="1" parent="1">
          <mxGeometry x="370" y="120" width="160" height="40" as="geometry" />
        </mxCell>
        <mxCell id="uvVCpmAjIxrzyu7uWYnQ-105" value="videoName : text" style="rounded=0;whiteSpace=wrap;html=1;fillColor=none;" vertex="1" parent="1">
          <mxGeometry x="370" y="160" width="160" height="40" as="geometry" />
        </mxCell>
        <mxCell id="uvVCpmAjIxrzyu7uWYnQ-106" value="videoOwner : character varying (30)" style="rounded=0;whiteSpace=wrap;html=1;fillColor=none;" vertex="1" parent="1">
          <mxGeometry x="370" y="200" width="160" height="40" as="geometry" />
        </mxCell>
        <mxCell id="uvVCpmAjIxrzyu7uWYnQ-107" value="uploadDate : date" style="whiteSpace=wrap;html=1;fillColor=none;" vertex="1" parent="1">
          <mxGeometry x="370" y="240" width="160" height="40" as="geometry" />
        </mxCell>
        <mxCell id="uvVCpmAjIxrzyu7uWYnQ-109" value="SignUpDate : date" style="rounded=0;whiteSpace=wrap;html=1;fillColor=none;" vertex="1" parent="1">
          <mxGeometry x="80" y="240" width="160" height="40" as="geometry" />
        </mxCell>
        <mxCell id="uvVCpmAjIxrzyu7uWYnQ-113" value="" style="edgeStyle=entityRelationEdgeStyle;fontSize=12;html=1;endArrow=ERoneToMany;rounded=0;entryX=1;entryY=0.5;entryDx=0;entryDy=0;exitX=0;exitY=0.5;exitDx=0;exitDy=0;" edge="1" parent="1" source="uvVCpmAjIxrzyu7uWYnQ-106" target="uvVCpmAjIxrzyu7uWYnQ-98">
          <mxGeometry width="100" height="100" relative="1" as="geometry">
            <mxPoint x="280" y="280" as="sourcePoint" />
            <mxPoint x="380" y="180" as="targetPoint" />
          </mxGeometry>
        </mxCell>
      </root>
    </mxGraphModel>
  </diagram>
</mxfile>
